0
SECTION
2
HEADER
9
$INSUNITS
70
4
9
$ACADVER
1
AC1014
9
$HANDSEED
5
FFFF
0
ENDSEC
0
SECTION
2
TABLES
0
TABLE
2
VPORT
5
8
100
AcDbSymbolTable
0
ENDTAB
0
TABLE
2
LTYPE
5
5
100
AcDbSymbolTable
70
2
0
LTYPE
5
14
100
AcDbSymbolTableRecord
100
AcDbLinetypeTableRecord
2
BYBLOCK
70
0
0
LTYPE
5
15
100
AcDbSymbolTableRecord
100
AcDbLinetypeTableRecord
2
BYLAYER
70
0
0
ENDTAB
0
TABLE
2
LAYER
5
2
100
AcDbSymbolTable
70
3
0
LAYER
5
50
100
AcDbSymbolTableRecord
100
AcDbLayerTableRecord
2
0
70
0
6
CONTINUOUS
0
LAYER
5
51
100
AcDbSymbolTableRecord
100
AcDbLayerTableRecord
2
CUTOUTS
70
0
62
1
6
CONTINUOUS
0
LAYER
5
52
100
AcDbSymbolTableRecord
100
AcDbLayerTableRecord
2
PERIMETER
70
0
62
5
6
CONTINUOUS
0
ENDTAB
0
TABLE
2
STYLE
5
3
100
AcDbSymbolTable
70
1
0
STYLE
5
11
100
AcDbSymbolTableRecord
100
AcDbTextStyleTableRecord
2
STANDARD
70
0
0
ENDTAB
0
TABLE
2
VIEW
5
6
100
AcDbSymbolTable
0
ENDTAB
0
TABLE
2
UCS
5
7
100
AcDbSymbolTable
0
ENDTAB
0
TABLE
2
APPID
5
9
100
AcDbSymbolTable
70
1
0
APPID
5
12
100
AcDbSymbolTableRecord
100
AcDbRegAppTableRecord
2
ACAD
70
0
0
ENDTAB
0
TABLE
2
DIMSTYLE
5
A
100
AcDbSymbolTable
0
ENDTAB
0
TABLE
2
BLOCK_RECORD
5
1
100
AcDbSymbolTable
70
2
0
BLOCK_RECORD
5
1F
100
AcDbSymbolTableRecord
100
AcDbBlockTableRecord
2
*MODEL_SPACE
0
BLOCK_RECORD
5
1B
100
AcDbSymbolTableRecord
100
AcDbBlockTableRecord
2
*PAPER_SPACE
0
ENDTAB
0
ENDSEC
0
SECTION
2
BLOCKS
0
BLOCK
5
20
100
AcDbEntity
100
AcDbBlockBegin
2
*MODEL_SPACE
0
ENDBLK
5
21
100
AcDbEntity
100
AcDbBlockEnd
0
BLOCK
5
1C
100
AcDbEntity
100
AcDbBlockBegin
2
*PAPER_SPACE
0
ENDBLK
5
1D
100
AcDbEntity
100
AcDbBlockEnd
0
ENDSEC
0
SECTION
2
ENTITIES
0
CIRCLE
5
100
100
AcDbEntity
8
CUTOUTS
100
AcDbCircle
10
14.344388134947046
20
6.1425012305099447
30
0
40
6.4250000000000007
210
0
220
0
230
1
0
CIRCLE
5
101
100
AcDbEntity
8
CUTOUTS
100
AcDbCircle
10
-3.333281394716654
20
-11.535168299153744
30
0
40
3.1750000000000069
210
0
220
0
230
1
0
CIRCLE
5
102
100
AcDbEntity
8
CUTOUTS
100
AcDbCircle
10
-10.275805690358165
20
1.8012967888366989
30
0
40
3.1750000000000069
210
0
220
0
230
1
0
SPLINE
5
103
100
AcDbEntity
8
PERIMETER
100
AcDbSpline
70
0
71
3
72
14
73
10
74
0
42
0.000000001
43
0.0000000001
44
0.0000000001
40
-0.88626418318207978
40
-0.88626418318207978
40
-0.88626418318207978
40
-0.88626418318207978
40
-0.31255039277548158
40
-0.31255039277548158
40
-0.31255039277548158
40
0.20161747539567976
40
0.20161747539567976
40
0.20161747539567976
40
0.63145150956938767
40
0.63145150956938767
40
0.63145150956938767
40
0.63145150956938767
10
-9.5048639901344334
20
13.809113497401642
30
0
10
-14.304417220544568
20
11.11793188066228
30
0
10
-17.758157511310763
20
8.0020629446256013
30
0
10
-19.3217128844862
20
4.9355580280425482
30
0
10
-20.722986387818629
20
2.187326554334259
30
0
10
-20.600307122726971
20
-0.52117643892632071
30
0
10
-18.96514599260362
20
-2.8138049430975753
30
0
10
-17.598184055474199
20
-4.7303964296770484
30
0
10
-15.191557120536544
20
-6.3560487380361579
30
0
10
-11.96591327549819
20
-7.5537747738529752
30
0
0
SPLINE
5
104
100
AcDbEntity
8
PERIMETER
100
AcDbSpline
70
0
71
3
72
14
73
10
74
0
42
0.000000001
43
0.0000000001
44
0.0000000001
40
-0.63145150956938711
40
-0.63145150956938711
40
-0.63145150956938711
40
-0.63145150956938711
40
-0.088199964690295229
40
-0.088199964690295229
40
-0.088199964690295229
40
0.47120520131925459
40
0.47120520131925459
40
0.47120520131925459
40
0.88626418318207068
40
0.88626418318207068
40
0.88626418318207068
40
0.88626418318207068
10
-11.96591327549819
20
-7.5537747738529726
30
0
10
-13.06422940757229
20
-11.761439763871245
30
0
10
-12.840384578580682
20
-15.28339392557668
30
0
10
-11.305093671109198
20
-17.616968015616131
30
0
10
-9.7241507855106093
20
-20.019931087768356
30
0
10
-6.7600449350336556
20
-21.133031396048278
30
0
10
-2.8858537669527951
20
-20.798864310851254
30
0
10
-0.011340016505760886
20
-20.550924072573984
30
0
10
3.3586466048885066
20
-19.51867279933607
30
0
10
6.9451402026003439
20
-17.791050545443188
30
0
0
SPLINE
5
105
100
AcDbEntity
8
PERIMETER
100
AcDbSpline
70
0
71
3
72
20
73
16
74
0
42
0.000000001
43
0.0000000001
44
0.0000000001
40
-1.3023012959356004
40
-1.3023012959356004
40
-1.3023012959356004
40
-1.3023012959356004
40
-0.73016738467395581
40
-0.73016738467395581
40
-0.73016738467395581
40
-0.21690303038822922
40
-0.21690303038822922
40
-0.21690303038822922
40
0.28922259559581853
40
0.28922259559581853
40
0.28922259559581853
40
0.84627500707980896
40
0.84627500707980896
40
0.84627500707980896
40
1.3023012959355951
40
1.3023012959355951
40
1.3023012959355951
40
1.3023012959355951
10
6.9451402026003439
20
-17.791050545443188
30
0
10
13.860061591045763
20
-13.141232125771776
30
0
10
19.71164988304723
20
-7.9266157477766868
30
0
10
23.588659531779761
20
-2.9561732140134755
30
0
10
27.0667453692861
20
1.5028370410867637
30
0
10
28.956570534643738
20
5.7547712496895818
30
0
10
29.007265248842032
20
9.271833489505763
30
0
10
29.057254876493861
20
12.7399787306243
30
0
10
27.306085191118932
20
15.48123190500349
30
0
10
23.992113043056619
20
17.129984199257059
30
0
10
20.344686234584607
20
18.944635333880026
30
0
10
14.812207070054743
20
19.440669887904839
30
0
10
8.2078731772925035
20
18.558632526343803
30
0
10
2.8012905768195373
20
17.836560031310025
30
0
10
-3.3075824231733453
20
16.198198068137216
30
0
10
-9.504863990134421
20
13.809113497401624
30
0
0
ENDSEC
0
SECTION
2
OBJECTS
0
DICTIONARY
5
C
100
AcDbDictionary
3
ACAD_GROUP
350
D
3
ACAD_MLINESTYLE
350
17
0
DICTIONARY
5
D
100
AcDbDictionary
0
DICTIONARY
5
1A
330
C
100
AcDbDictionary
0
DICTIONARY
5
17
100
AcDbDictionary
0
ENDSEC
0
EOF
